<?xml version="1.0" encoding="UTF-8"?>
<!--Generator: Apple Native CoreSVG 326-->
<!DOCTYPE svg
PUBLIC "-//W3C//DTD SVG 1.1//EN"
       "http://www.w3.org/Graphics/SVG/1.1/DTD/svg11.dtd">
<svg version="1.1" xmlns="http://www.w3.org/2000/svg" xmlns:xlink="http://www.w3.org/1999/xlink" viewBox="0 0 16.8523 23.7394">
 <g>
  <rect height="23.7394" opacity="0" width="16.8523" x="0" y="0"/>
  <path d="M-8.88178e-16 11.861C-8.88178e-16 12.2034 0.139284 12.5051 0.388866 12.7662L11.2232 23.3565C11.4524 23.6002 11.7686 23.722 12.1196 23.722C12.8272 23.722 13.364 23.1912 13.364 22.4776C13.364 22.1295 13.2276 21.8279 13.0014 21.5872L3.06604 11.861L13.0014 2.13483C13.2276 1.89409 13.364 1.57796 13.364 1.24439C13.364 0.530823 12.8272 0 12.1196 0C11.7686 0 11.4524 0.121825 11.2232 0.365518L0.388866 10.9558C0.139284 11.2169-8.88178e-16 11.5186-8.88178e-16 11.861Z" fill="white" fill-opacity="0.85"/>
 </g>
</svg>
