<?xml version="1.0" encoding="UTF-8"?>
<!--Generator: Apple Native CoreSVG 326-->
<!DOCTYPE svg
PUBLIC "-//W3C//DTD SVG 1.1//EN"
       "http://www.w3.org/Graphics/SVG/1.1/DTD/svg11.dtd">
<svg version="1.1" xmlns="http://www.w3.org/2000/svg" xmlns:xlink="http://www.w3.org/1999/xlink" viewBox="0 0 18.6604 25.037">
 <g>
  <rect height="25.037" opacity="0" width="18.6604" x="0" y="0"/>
  <path d="M0 12.5098C0 13.1852 0.244306 13.7429 0.804815 14.294L11.1403 24.4109C11.554 24.8327 12.0638 25.0276 12.6564 25.0276C13.8694 25.0276 14.8517 24.0561 14.8517 22.8563C14.8517 22.2491 14.6008 21.6994 14.1485 21.2471L5.14763 12.5018L14.1485 3.77248C14.6088 3.32019 14.8517 2.76245 14.8517 2.17129C14.8517 0.971451 13.8694 0 12.6564 0C12.0558 0 11.554 0.194887 11.1403 0.61664L0.804815 10.7256C0.2523 11.2767 0.0079938 11.8264 0 12.5098Z" fill="white" fill-opacity="0.85"/>
 </g>
</svg>
